PathFileType	4	(X/Y/Z)	Patient4_TMGait_0pt5_02_left_35.trc.trc
DataRate	CameraRate	NumFrames	NumMarkers	Units	OrigDataRate	OrigDataStartFrame	OrigNumFrames
77.348066298342	77.348066298342	6	33	mm	77.348066298342	18	       141
Frame#	Time	Sacral			L.Shoulder			Chest			R.Shoulder			Neck			R.ASIS			L.ASIS			R.Thigh.Superior			R.Thigh.Lateral			R.Thigh.Inferior			R.Patella			L.Thigh.Superior			L.Thigh.Lateral			L.Thigh.Inferior			L.Patella			L.Shank.Superior			L.Shank.Lateral			L.Shank.Inferior			R.Shank.Superior			R.Shank.Lateral			R.Shank.Inferior			R.Heel			R.Midfoot.Superior			R.Midfoot.Lateral			R.Toe			L.Heel			L.Midfoot.Lateral			L.Midfoot.Superior			L.Toe			L.Elbow			L.Wrist			R.Elbow			R.Wrist			
		X1	Y1	Z1	X2	Y2	Z2	X3	Y3	Z3	X4	Y4	Z4	X5	Y5	Z5	X6	Y6	Z6	X7	Y7	Z7	X8	Y8	Z8	X9	Y9	Z9	X10	Y10	Z10	X11	Y11	Z11	X12	Y12	Z12	X13	Y13	Z13	X14	Y14	Z14	X15	Y15	Z15	X16	Y16	Z16	X17	Y17	Z17	X18	Y18	Z18	X19	Y19	Z19	X20	Y20	Z20	X21	Y21	Z21	X22	Y22	Z22	X23	Y23	Z23	X24	Y24	Z24	X25	Y25	Z25	X26	Y26	Z26	X27	Y27	Z27	X28	Y28	Z28	X29	Y29	Z29	X30	Y30	Z30	X31	Y31	Z31	X32	Y32	Z32	X33	Y33	Z33	

18	45.269785714286	740.930009758868	1015.046467649221	525.648436732671	909.391968818567	1430.633392765169	317.770988008601	1031.288686218157	1355.933386805069	462.800975464998	979.614222136854	1437.049361017901	646.248150012489	934.183176421881	1493.644611701558	465.886237577976	974.198521505764	937.532595894689	615.022808273251	933.220228508040	962.175166628875	342.904389769019	986.845465652165	728.532949413108	581.563445330177	898.411319559453	629.224777396439	648.237537856354	957.682154963817	569.466094483289	560.476382066447	946.176369686141	482.436541764316	564.771712652210	1011.113034752953	781.135110728146	381.094649593030	967.471305617522	652.788496626290	307.011544766160	1064.663067404763	594.260477895056	377.568692571545	1091.979864007052	529.006474850535	376.636019265778	1077.409478111737	456.313755850458	365.183740192824	1017.900819256594	324.754209641745	310.579034906395	1102.240398960759	227.891682140420	373.313813032393	911.887737240862	396.326160890897	573.180383419014	836.448607651910	297.952128039090	637.454163771354	863.710147920222	201.687824237246	570.717462094897	715.482101885504	43.214818710797	545.506557466454	887.471935539278	96.400448224125	575.423813013681	800.377716617153	36.647162660148	618.518368204421	1008.355562115239	42.907651535797	602.322656293849	1021.845155267015	43.524576338428	408.612073967118	1100.113866519713	52.015977985484	333.323012708474	1164.472597457899	133.933988812386	356.933455739691	1300.641257530868	113.299500311001	340.421335746386	777.424242956364	1091.500498377275	242.499727430853	752.646280910498	833.455604211602	253.942273721394	1100.042500179222	1117.608124546682	757.569146807354	1345.794538699778	1098.500505095217	688.761714100531	
19	45.282714285714	741.679399819170	1014.106841789851	524.227702965122	908.634419616554	1429.825637490478	315.921868954942	1030.880497556939	1355.488261435864	460.811581283014	979.230633316803	1436.491270377220	644.285306962926	933.493199937067	1492.951293566772	463.976502600391	974.877135945787	937.121044461878	614.073730244735	934.162786840091	960.849290352002	341.768905025678	985.582808369901	727.471286540087	580.981409126610	896.068980751201	628.707314488013	647.746012890118	954.754637077432	568.319092826947	560.225204483663	942.293289225770	481.475914621723	564.417830697735	1012.247275662738	779.743952341974	380.093259001677	966.641677631561	650.720538621546	307.454892989182	1064.570618981038	592.449694903940	376.684071860877	1090.510763391694	526.492540597269	376.565605478871	1075.591155769989	453.585945147431	365.449386067096	1014.482263444820	322.578440698087	311.756614311144	1098.083670474914	225.189941188758	374.398328771293	907.476271462391	395.647657967790	572.891822450927	831.423952629584	297.792816593494	637.282868215823	857.935191427304	201.308306057956	570.606641363014	708.929222632786	43.145086520178	545.540753574939	880.914168428012	96.294160601544	575.364749229764	793.814694705065	36.580210093980	618.549274553885	1001.790531813546	42.843466705094	602.376416439946	1015.505440822108	43.045242434384	410.791550064049	1093.408447422191	49.869052683817	335.018806878807	1159.527223055927	130.078746036362	358.297671519988	1294.934117419349	106.476476543492	341.061080778248	774.472710469572	1091.718854108434	241.777982538850	747.806022594935	833.843494673609	253.931769401346	1101.531492801798	1117.789546262422	754.668916555200	1347.013331192627	1105.863899673201	684.654881499394	
20	45.295642857143	742.669124016947	1013.001274113409	522.568061213791	907.869755440925	1428.892673876058	313.904749565668	1030.453455649820	1355.071821787667	458.749658962471	978.599661525223	1435.904228315009	642.228041803317	932.646908054559	1492.189194510954	461.910077494565	975.781797641661	936.660388564725	613.112947515852	935.506045794214	959.375367616755	340.638291673595	984.585726604820	726.355945955984	580.457848169363	893.823221587200	628.173823333135	647.200858711562	951.953842277477	567.122202336693	559.997475497861	938.496670426057	480.470216515163	564.028506312986	1013.748784528144	777.995584098050	379.010453277447	965.806712806292	648.408190324666	307.907844410857	1064.464528529165	590.240442047711	375.794273652301	1088.803976873296	523.438504596129	376.537341064230	1073.341969199168	450.319439269603	365.753882694691	1010.186870773973	320.107504737097	312.820637667575	1092.586487326880	221.844424056006	375.460007263756	903.123289340626	394.951001871109	572.563158946103	826.429606589900	297.655980611185	637.083629589247	852.173071348416	200.926205389748	570.482793761922	702.378836112509	43.079134567969	545.580179517585	874.355461148822	96.184700055039	575.304859956023	787.259080670239	36.512399827920	618.578546762314	995.229639007081	42.750121574561	602.436171478609	1006.928839006227	42.398420240071	412.580202633908	1084.642296330881	47.358861479298	336.457442009561	1152.898298751308	125.367412812147	359.764148314047	1287.465878695129	98.073718280984	341.963794759743	772.198585608772	1091.549877061381	240.722436174762	744.116974426192	833.804959875633	253.482925158884	1102.359461095423	1117.702156095061	751.846403768121	1347.426627739996	1112.227131965050	680.810594736575	
21	45.308571428571	743.867227079472	1011.778242522282	520.698500436403	907.136860531157	1427.853780386638	311.726284455727	1030.034315425133	1354.695959472801	456.628723584603	977.754457929552	1435.314238994539	640.086949450443	931.687746095969	1491.383574657154	459.688529814700	976.889852390754	936.151287021612	612.114613840131	937.191923232871	957.814750716468	339.507967132285	983.878498730359	725.203671103864	579.978815385107	891.708418558739	627.640002718555	646.579341211271	949.318984609546	565.900468875328	559.766154322799	934.836568709494	479.428614194215	563.577713225212	1015.437939034390	775.872595925026	377.848875817183	964.895941737163	645.932351097164	308.275858156108	1064.190161988879	587.671151477752	374.925902381904	1086.791328429707	519.989467610909	376.549564387979	1070.706171748914	446.698077537068	366.073020395431	1005.327988576258	317.404960087406	313.725433349575	1086.207280818855	218.080295584932	376.502115703119	898.867285003191	394.249650701778	572.174647221715	821.497806408801	297.567973564062	636.847027036370	846.448025151010	200.562977623173	570.342019932911	695.838047536830	43.056657595087	545.633165520931	867.815126774485	96.088659871794	575.259714205428	780.720499875600	36.463532664919	618.609723168336	988.682504638077	42.613551006562	602.504394715849	996.914925521529	41.613344849758	413.963162442716	1074.616222680020	44.697368382027	337.644651777931	1145.184349136662	120.171148823972	361.358928818285	1278.892809059428	88.787917138107	343.191584709615	770.631434354907	1090.994577196331	239.313521567082	741.602295209831	833.337323263761	252.587528677662	1102.537263383646	1117.337991519114	749.118121192361	1347.115762708809	1117.535476541945	677.254886623726	
22	45.321500000000	745.223666693887	1010.508089106533	518.657398040915	906.473844729842	1426.749456828400	309.402043617711	1029.650286136646	1354.382512380525	454.463431987766	976.745092069713	1434.760890676194	637.875039189154	930.670584970307	1490.576006903853	457.321265773613	978.161987863535	935.607124621570	611.043343077548	939.131136276046	956.255556009778	338.362319391940	983.467236765069	724.046302071116	579.509341243772	889.764852767172	627.130755929866	645.853047149301	946.897973872777	564.692234098071	559.493205715372	931.378575598452	478.366678673721	563.037304702443	1017.143237200967	773.430283554402	376.610901422542	963.877930898678	643.414575828136	308.471431465871	1063.644885524043	584.854643910800	374.099907026233	1084.471206346903	516.351865240232	376.583694264425	1067.777386768273	442.948582701187	366.370048760181	1000.230606240612	314.593302172311	314.437958946861	1079.405615962145	214.165747383445	377.514715837607	894.759868628641	393.564184260378	571.706132327159	816.670074885088	297.563944981298	636.562671949170	840.792058335953	200.249012386257	570.182123553413	689.316131984351	43.134454073851	545.710355226838	861.319529355154	96.027521094724	575.248089033672	774.210439072543	36.462365483025	618.647484040600	982.161038542744	42.420759228647	602.583211840883	986.250857677407	40.756121134519	414.974523325299	1064.083977512958	42.115370134911	338.598411062454	1136.949143342050	114.900770726766	363.061010653965	1269.828422860468	79.361094003718	344.699286445596	769.804770707806	1090.078287619991	237.544770890359	740.279550001050	832.463984015497	251.237891261181	1102.077517132938	1116.703957398066	746.496262541127	1346.159333864911	1121.737892761056	674.007230095758	
23	45.334428571429	746.673291866281	1009.279138224687	516.489465869196	905.913744373404	1425.641197447734	306.957669653840	1029.326738544370	1354.161350970274	452.268463982531	975.639062750762	1434.295056651157	635.607333224231	929.657990424367	1489.822258839861	454.827844278957	979.542769214966	935.056366728259	609.858343461899	941.209035339820	954.805402730325	337.173474802252	983.335842693829	722.931633600582	578.995172372384	888.036500813213	626.679586576522	644.991757256686	944.745027081967	563.547354371660	559.132955728197	928.203470424573	477.305710801681	562.383128884578	1018.719605667286	770.799316528722	375.298769556199	962.769233589011	641.006531789664	308.423242408778	1062.793241313150	581.969860751404	373.329679366745	1081.907177245180	512.769430033817	376.609750423546	1064.686956988107	439.313519332302	366.603084887805	995.198405323209	311.837780622031	314.931865229023	1072.588926705906	210.375310330081	378.472530265777	890.865142938652	392.920909397707	571.141118864865	811.996383589973	297.686370024015	636.221573534690	835.244697320754	200.022319468031	570.004001659871	682.824858711405	43.385203768785	545.823774061821	854.900842025612	96.025025765236	575.288782825680	767.741940808743	36.546011917408	618.697472166882	975.678569280912	42.161544734322	602.673907962431	975.620622239688	39.907737834939	415.675704138600	1053.677126156627	39.819080893468	339.341853343670	1128.663164477003	109.949253561157	364.804753935058	1260.784807242555	70.489035033408	346.362907640158	769.752303939838	1088.851982527061	235.423342957514	740.163282451900	831.235109646404	249.428275175518	1100.992567993839	1115.823775730922	743.989789942882	1344.629112000111	1124.786362758859	671.081119841129	
